<svg xmlns="http://www.w3.org/2000/svg" viewBox="-21472 -14111 162.701 202.615">
  <defs>
    <style>
      .cls-1 {
        fill: #ff6700;
      }
    </style>
  </defs>
  <path id="Union_5" data-name="Union 5" class="cls-1" d="M64.244,185.509A17.107,17.107,0,1,1,81.35,202.615,17.106,17.106,0,0,1,64.244,185.509ZM0,151.3A17.106,17.106,0,1,1,17.106,168.4,17.107,17.107,0,0,1,0,151.3Zm128.489-5.323a17.106,17.106,0,1,1,17.106,17.106A17.107,17.107,0,0,1,128.489,145.975ZM23.188,87.242a58.19,58.19,0,0,1,42.1-55.773,40.68,40.68,0,1,1,70.337,35.88A57.978,57.978,0,1,1,23.188,87.242ZM42.717,90.7a6.322,6.322,0,0,0-2.209,1.6,7.165,7.165,0,0,0-1.381,2.39,8.968,8.968,0,0,0-.48,2.97,8.667,8.667,0,0,0,.48,2.91,6.981,6.981,0,0,0,1.381,2.35,6.332,6.332,0,0,0,2.209,1.571,7.362,7.362,0,0,0,2.95.57,7.066,7.066,0,0,0,2.42-.4,5.648,5.648,0,0,0,1.92-1.16,5.836,5.836,0,0,0,1.32-1.841,7.307,7.307,0,0,0,.62-2.42h-3.04a4.088,4.088,0,0,1-.99,2.32,2.917,2.917,0,0,1-2.25.88,3.673,3.673,0,0,1-1.8-.41,3.428,3.428,0,0,1-1.2-1.09A4.755,4.755,0,0,1,42,99.4a7.3,7.3,0,0,1-.21-1.75,7.859,7.859,0,0,1,.21-1.82,4.836,4.836,0,0,1,.671-1.571,3.413,3.413,0,0,1,1.2-1.1,3.678,3.678,0,0,1,1.8-.409,3.285,3.285,0,0,1,2.06.719,3.2,3.2,0,0,1,.7.79,2.6,2.6,0,0,1,.36.99h3.039a5.764,5.764,0,0,0-.68-2.2,5.367,5.367,0,0,0-1.37-1.61,6.076,6.076,0,0,0-1.88-.99,7.653,7.653,0,0,0-5.18.24Zm73.64,12.409a3.434,3.434,0,0,0,1.1,1.111,4.691,4.691,0,0,0,1.53.6,8.625,8.625,0,0,0,1.759.179,8.808,8.808,0,0,0,1.73-.169,4.41,4.41,0,0,0,1.51-.59,3.141,3.141,0,0,0,1.48-2.82,2.413,2.413,0,0,0-.281-1.211,2.579,2.579,0,0,0-.74-.82,3.989,3.989,0,0,0-1.049-.53,12.13,12.13,0,0,0-1.21-.34c-.4-.093-.793-.18-1.18-.259a9.123,9.123,0,0,1-1.03-.27,2.2,2.2,0,0,1-.731-.391.784.784,0,0,1-.28-.62.769.769,0,0,1,.16-.509,1.062,1.062,0,0,1,.39-.29,1.727,1.727,0,0,1,.51-.131,4.96,4.96,0,0,1,.52-.03,2.845,2.845,0,0,1,1.32.29,1.247,1.247,0,0,1,.619,1.11h2.7a3.4,3.4,0,0,0-.49-1.589,3.263,3.263,0,0,0-1.03-1.011,4.348,4.348,0,0,0-1.41-.54,8.294,8.294,0,0,0-1.63-.159,8.927,8.927,0,0,0-1.64.149,4.535,4.535,0,0,0-1.44.52,2.884,2.884,0,0,0-1.031,1.01,3.126,3.126,0,0,0-.39,1.64,2.218,2.218,0,0,0,.28,1.15,2.439,2.439,0,0,0,.74.78,4.17,4.17,0,0,0,1.05.5q.59.189,1.21.329a17.069,17.069,0,0,1,2.371.64c.563.212.85.535.85.96a1.055,1.055,0,0,1-.18.63,1.362,1.362,0,0,1-.45.4,2.116,2.116,0,0,1-.6.22,3.028,3.028,0,0,1-.63.07,3.237,3.237,0,0,1-.81-.1,2.1,2.1,0,0,1-.689-.31,1.668,1.668,0,0,1-.491-.54,1.561,1.561,0,0,1-.19-.79h-2.7A3.5,3.5,0,0,0,116.357,103.1Zm-21.23-8.6a4.729,4.729,0,0,0-2.759,2.82,6.368,6.368,0,0,0-.38,2.25,6.288,6.288,0,0,0,.38,2.24,4.862,4.862,0,0,0,1.08,1.71,4.735,4.735,0,0,0,1.679,1.09,6.064,6.064,0,0,0,2.2.38,6.141,6.141,0,0,0,2.209-.38,4.707,4.707,0,0,0,1.69-1.09,4.874,4.874,0,0,0,1.08-1.71,6.288,6.288,0,0,0,.38-2.24,6.368,6.368,0,0,0-.38-2.25,4.708,4.708,0,0,0-2.77-2.82,6.014,6.014,0,0,0-2.209-.39A5.939,5.939,0,0,0,95.126,94.505Zm-12.219,0a4.727,4.727,0,0,0-2.76,2.82,6.386,6.386,0,0,0-.38,2.25,6.305,6.305,0,0,0,.38,2.24,4.873,4.873,0,0,0,1.08,1.71,4.738,4.738,0,0,0,1.68,1.09,6.063,6.063,0,0,0,2.2.38,6.15,6.15,0,0,0,2.21-.38,4.723,4.723,0,0,0,1.689-1.09,4.874,4.874,0,0,0,1.08-1.71,6.282,6.282,0,0,0,.381-2.24,6.362,6.362,0,0,0-.381-2.25,4.71,4.71,0,0,0-2.769-2.82,6.022,6.022,0,0,0-2.21-.39A5.937,5.937,0,0,0,82.907,94.505ZM59.1,96.065a1.6,1.6,0,0,1,.58.2,1.115,1.115,0,0,1,.4.42,1.514,1.514,0,0,1,.15.73.772.772,0,0,1-.26.671,1.933,1.933,0,0,1-.761.35,7.836,7.836,0,0,1-1.1.18q-.62.059-1.26.159a11.989,11.989,0,0,0-1.27.27,3.6,3.6,0,0,0-1.12.51,2.6,2.6,0,0,0-.8.91,3.022,3.022,0,0,0-.311,1.45,3.265,3.265,0,0,0,.27,1.381,2.605,2.605,0,0,0,.751.959,3.165,3.165,0,0,0,1.12.561,5.116,5.116,0,0,0,1.38.179,6.445,6.445,0,0,0,1.88-.28,3.712,3.712,0,0,0,1.6-.98,4.3,4.3,0,0,0,.07.51,4.138,4.138,0,0,0,.13.491h2.88a2.427,2.427,0,0,1-.28-.96,10.9,10.9,0,0,1-.08-1.34v-5.38a2.5,2.5,0,0,0-.419-1.51,2.906,2.906,0,0,0-1.08-.889,4.837,4.837,0,0,0-1.461-.43,11.553,11.553,0,0,0-1.58-.11,8.751,8.751,0,0,0-1.71.17,4.894,4.894,0,0,0-1.53.57,3.419,3.419,0,0,0-1.121,1.06,3.307,3.307,0,0,0-.5,1.66h2.84a1.616,1.616,0,0,1,.561-1.2,2.163,2.163,0,0,1,1.319-.36A4.746,4.746,0,0,1,59.1,96.065Zm12.99.23h1.721v6.1a2.663,2.663,0,0,0,.259,1.26,1.868,1.868,0,0,0,.71.74,2.965,2.965,0,0,0,1.04.35,8.451,8.451,0,0,0,1.25.09c.28,0,.566-.007.859-.02a6.867,6.867,0,0,0,.8-.08v-2.2a3.918,3.918,0,0,1-.419.06c-.147.013-.3.02-.461.02a.962.962,0,0,1-1.2-1.2V96.3h2.08V94.4h-2.08V91.3h-2.84v3.1H72.086Zm38.9.689a3.644,3.644,0,0,1,.4,1.911v5.84h2.84v-6.36a8.406,8.406,0,0,0-.17-1.751,3.337,3.337,0,0,0-.59-1.339,2.785,2.785,0,0,0-1.15-.86,4.841,4.841,0,0,0-1.869-.31,4.064,4.064,0,0,0-1.76.41,3.274,3.274,0,0,0-1.4,1.31l-.06-1.44h-2.7v10.34h2.84V99.315a3.851,3.851,0,0,1,.52-2.27,1.976,1.976,0,0,1,1.68-.69A1.559,1.559,0,0,1,110.987,96.985Zm-45.72,7.751h2.839v-4.66a5.71,5.71,0,0,1,.14-1.3,2.852,2.852,0,0,1,.47-1.049,2.284,2.284,0,0,1,.87-.71,3.03,3.03,0,0,1,1.319-.26,5.113,5.113,0,0,1,.54.03q.281.03.481.07v-2.64a2.244,2.244,0,0,0-.62-.1,3.438,3.438,0,0,0-1.04.159,3.856,3.856,0,0,0-.94.45,3.541,3.541,0,0,0-.78.7,3.484,3.484,0,0,0-.54.89l-.04-1.92h-2.7ZM42.717,70.695a6.336,6.336,0,0,0-2.209,1.6,7.165,7.165,0,0,0-1.381,2.39,8.968,8.968,0,0,0-.48,2.97,8.667,8.667,0,0,0,.48,2.91,6.978,6.978,0,0,0,1.381,2.35,6.345,6.345,0,0,0,2.209,1.571,7.362,7.362,0,0,0,2.95.57,7.059,7.059,0,0,0,2.42-.4,5.626,5.626,0,0,0,1.92-1.159,5.836,5.836,0,0,0,1.32-1.84,7.307,7.307,0,0,0,.62-2.42h-3.04a4.088,4.088,0,0,1-.99,2.32,2.917,2.917,0,0,1-2.25.88,3.673,3.673,0,0,1-1.8-.41,3.428,3.428,0,0,1-1.2-1.09A4.753,4.753,0,0,1,42,79.405a7.3,7.3,0,0,1-.21-1.75A7.861,7.861,0,0,1,42,75.835a4.851,4.851,0,0,1,.671-1.57,3.413,3.413,0,0,1,1.2-1.1,3.673,3.673,0,0,1,1.8-.41,3.29,3.29,0,0,1,1.11.19,3.256,3.256,0,0,1,.95.53,3.2,3.2,0,0,1,.7.79,2.6,2.6,0,0,1,.36.99h3.039a5.764,5.764,0,0,0-.68-2.2,5.367,5.367,0,0,0-1.37-1.61,6.076,6.076,0,0,0-1.88-.99,7.659,7.659,0,0,0-5.18.239Zm57.07,3.84a4.728,4.728,0,0,0-1.66,1.17,5.047,5.047,0,0,0-1.03,1.78,6.928,6.928,0,0,0-.35,2.23,5.8,5.8,0,0,0,.381,2.129,5,5,0,0,0,1.059,1.67,4.748,4.748,0,0,0,1.651,1.09,5.685,5.685,0,0,0,2.129.39,5.19,5.19,0,0,0,3.38-1.08,4.708,4.708,0,0,0,1.6-3.14h-2.741a2.711,2.711,0,0,1-.689,1.53,2.089,2.089,0,0,1-1.571.571,2.007,2.007,0,0,1-1.12-.3,2.245,2.245,0,0,1-.73-.77,3.521,3.521,0,0,1-.391-1.05,5.644,5.644,0,0,1-.12-1.14,5.907,5.907,0,0,1,.12-1.17,3.455,3.455,0,0,1,.41-1.08,2.474,2.474,0,0,1,.75-.8,2,2,0,0,1,1.14-.311,1.91,1.91,0,0,1,2.1,1.78h2.78a3.775,3.775,0,0,0-1.57-2.95,4.75,4.75,0,0,0-1.52-.73,6.516,6.516,0,0,0-1.77-.24A5.665,5.665,0,0,0,99.787,74.535Zm-18.65,8.57a3.458,3.458,0,0,0,1.1,1.111,4.661,4.661,0,0,0,1.53.6,8.552,8.552,0,0,0,1.76.18,8.87,8.87,0,0,0,1.73-.17,4.424,4.424,0,0,0,1.51-.59,3.141,3.141,0,0,0,1.48-2.821,2.415,2.415,0,0,0-.28-1.21,2.561,2.561,0,0,0-.74-.82,4.008,4.008,0,0,0-1.05-.53,12.113,12.113,0,0,0-1.21-.34q-.6-.139-1.18-.26a9,9,0,0,1-1.031-.27,2.168,2.168,0,0,1-.73-.39.784.784,0,0,1-.28-.62.77.77,0,0,1,.16-.51,1.061,1.061,0,0,1,.39-.29,1.727,1.727,0,0,1,.51-.13,4.961,4.961,0,0,1,.52-.031,2.849,2.849,0,0,1,1.319.291,1.247,1.247,0,0,1,.62,1.11h2.7a3.42,3.42,0,0,0-.49-1.59,3.254,3.254,0,0,0-1.031-1.01,4.335,4.335,0,0,0-1.409-.54,8.289,8.289,0,0,0-1.631-.16,8.92,8.92,0,0,0-1.64.15,4.541,4.541,0,0,0-1.44.52A2.889,2.889,0,0,0,81.3,75.8a3.121,3.121,0,0,0-.391,1.64,2.214,2.214,0,0,0,.281,1.15,2.439,2.439,0,0,0,.74.78,4.157,4.157,0,0,0,1.049.5q.591.19,1.211.33a17.015,17.015,0,0,1,2.37.64c.564.212.851.535.851.96a1.055,1.055,0,0,1-.18.63,1.378,1.378,0,0,1-.45.4,2.168,2.168,0,0,1-.6.22,3.107,3.107,0,0,1-.63.069,3.252,3.252,0,0,1-.81-.1,2.123,2.123,0,0,1-.69-.31,1.682,1.682,0,0,1-.49-.54,1.566,1.566,0,0,1-.19-.79h-2.7A3.487,3.487,0,0,0,81.137,83.105Zm-10.74,0a3.458,3.458,0,0,0,1.1,1.111,4.65,4.65,0,0,0,1.53.6,8.543,8.543,0,0,0,1.759.18,8.872,8.872,0,0,0,1.731-.17,4.405,4.405,0,0,0,1.509-.59,3.144,3.144,0,0,0,1.48-2.821,2.424,2.424,0,0,0-.28-1.21,2.582,2.582,0,0,0-.74-.82,4.008,4.008,0,0,0-1.05-.53,12.062,12.062,0,0,0-1.211-.34q-.6-.139-1.18-.26a8.986,8.986,0,0,1-1.03-.27,2.166,2.166,0,0,1-.73-.39.782.782,0,0,1-.28-.62.77.77,0,0,1,.159-.51,1.067,1.067,0,0,1,.391-.29,1.721,1.721,0,0,1,.509-.13,4.975,4.975,0,0,1,.52-.031,2.85,2.85,0,0,1,1.32.291,1.25,1.25,0,0,1,.62,1.11h2.7a3.413,3.413,0,0,0-.491-1.59,3.252,3.252,0,0,0-1.03-1.01,4.373,4.373,0,0,0-1.41-.54,8.273,8.273,0,0,0-1.63-.16,8.906,8.906,0,0,0-1.64.15,4.535,4.535,0,0,0-1.44.52,2.884,2.884,0,0,0-1.03,1.01,3.134,3.134,0,0,0-.39,1.64,2.227,2.227,0,0,0,.28,1.15,2.459,2.459,0,0,0,.74.78,4.134,4.134,0,0,0,1.05.5q.59.19,1.211.33a17.086,17.086,0,0,1,2.37.64c.563.212.85.535.85.96a1.05,1.05,0,0,1-.18.63,1.362,1.362,0,0,1-.45.4,2.173,2.173,0,0,1-.6.22,3.121,3.121,0,0,1-.63.069,3.252,3.252,0,0,1-.81-.1,2.116,2.116,0,0,1-.69-.31,1.67,1.67,0,0,1-.49-.54,1.561,1.561,0,0,1-.191-.79h-2.7A3.492,3.492,0,0,0,70.4,83.105Zm-6.141-7.04a1.589,1.589,0,0,1,.58.2,1.1,1.1,0,0,1,.4.42,1.512,1.512,0,0,1,.15.73.768.768,0,0,1-.26.67,1.91,1.91,0,0,1-.76.35,7.537,7.537,0,0,1-1.1.18q-.62.061-1.26.16a12.218,12.218,0,0,0-1.27.27,3.6,3.6,0,0,0-1.12.51,2.607,2.607,0,0,0-.8.91,3.028,3.028,0,0,0-.31,1.45,3.258,3.258,0,0,0,.27,1.38,2.617,2.617,0,0,0,.75.96,3.157,3.157,0,0,0,1.12.56,5.067,5.067,0,0,0,1.381.18,6.454,6.454,0,0,0,1.88-.28,3.7,3.7,0,0,0,1.6-.98,4.3,4.3,0,0,0,.07.51,3.92,3.92,0,0,0,.131.49h2.88a2.383,2.383,0,0,1-.281-.959,10.973,10.973,0,0,1-.079-1.34v-5.38a2.5,2.5,0,0,0-.42-1.51,2.891,2.891,0,0,0-1.08-.89,4.851,4.851,0,0,0-1.46-.429,11.525,11.525,0,0,0-1.58-.111,8.765,8.765,0,0,0-1.71.17,4.889,4.889,0,0,0-1.53.571,3.4,3.4,0,0,0-1.12,1.059,3.323,3.323,0,0,0-.5,1.66h2.84a1.613,1.613,0,0,1,.56-1.2,2.17,2.17,0,0,1,1.32-.36A4.739,4.739,0,0,1,64.256,76.065Zm27.731,8.67h2.84V74.4h-2.84Zm-38.12,0h2.84V70.456h-2.84ZM91.987,72.8h2.84v-2.34h-2.84Zm-34.72,30.26a1.618,1.618,0,0,1-.56-.21,1.086,1.086,0,0,1-.381-.41,1.35,1.35,0,0,1-.139-.64,1.392,1.392,0,0,1,.139-.66,1.286,1.286,0,0,1,.37-.43,1.9,1.9,0,0,1,.54-.27,5.253,5.253,0,0,1,.63-.16q.34-.059.68-.1t.65-.1a4.622,4.622,0,0,0,.58-.15,1.283,1.283,0,0,0,.45-.25v1.06a5.44,5.44,0,0,1-.05.64,2.161,2.161,0,0,1-.27.79,1.879,1.879,0,0,1-.68.67,2.521,2.521,0,0,1-1.3.281A3.6,3.6,0,0,1,57.267,103.055Zm38.86-.46a2.19,2.19,0,0,1-.77-.751,3.233,3.233,0,0,1-.41-1.059,6.162,6.162,0,0,1-.12-1.21,6.3,6.3,0,0,1,.12-1.219,3.125,3.125,0,0,1,.41-1.06,2.188,2.188,0,0,1,1.97-1.04,2.351,2.351,0,0,1,1.21.291,2.274,2.274,0,0,1,.78.75,3.125,3.125,0,0,1,.41,1.06,6.3,6.3,0,0,1,.12,1.219,6.162,6.162,0,0,1-.12,1.21,3.253,3.253,0,0,1-.41,1.059,2.176,2.176,0,0,1-.78.751,2.424,2.424,0,0,1-1.21.28A2.364,2.364,0,0,1,96.127,102.6Zm-12.22,0a2.19,2.19,0,0,1-.77-.751,3.241,3.241,0,0,1-.41-1.059,6.075,6.075,0,0,1-.121-1.21,6.212,6.212,0,0,1,.121-1.219,3.132,3.132,0,0,1,.41-1.06,2.188,2.188,0,0,1,1.97-1.04,2.354,2.354,0,0,1,1.21.291,2.271,2.271,0,0,1,.779.75,3.125,3.125,0,0,1,.41,1.06,6.233,6.233,0,0,1,.12,1.219,6.1,6.1,0,0,1-.12,1.21,3.253,3.253,0,0,1-.41,1.059,2.18,2.18,0,0,1-.779.751,2.428,2.428,0,0,1-1.21.28A2.364,2.364,0,0,1,83.907,102.6Zm-21.48-19.54a1.617,1.617,0,0,1-.56-.211,1.081,1.081,0,0,1-.38-.41,1.335,1.335,0,0,1-.14-.64,1.384,1.384,0,0,1,.14-.661,1.273,1.273,0,0,1,.37-.429,1.873,1.873,0,0,1,.54-.27,5.046,5.046,0,0,1,.63-.16c.227-.041.453-.074.68-.1s.444-.06.651-.1a4.648,4.648,0,0,0,.58-.15,1.274,1.274,0,0,0,.45-.25v1.06a5.253,5.253,0,0,1-.05.64,2.161,2.161,0,0,1-.27.79,1.865,1.865,0,0,1-.679.67,2.524,2.524,0,0,1-1.3.28A3.612,3.612,0,0,1,62.427,83.056Z" transform="translate(-21472 -14111)"/>
</svg>
